<?xml version="1.0" encoding="UTF-8" standalone="no"?>
<!DOCTYPE svg PUBLIC "-//W3C//DTD SVG 1.1//EN"
 "http://www.w3.org/Graphics/SVG/1.1/DTD/svg11.dtd">
<!-- Generated by graphviz version 2.38.0 (20140413.2041)
 -->
<!-- Title: G Pages: 1 -->
<svg width="648pt" height="260pt"
 viewBox="0.00 0.00 648.40 260.00" xmlns="http://www.w3.org/2000/svg" xmlns:xlink="http://www.w3.org/1999/xlink">
<g id="graph0" class="graph" transform="scale(1 1) rotate(0) translate(4 256)">
<title>G</title>
<polygon fill="white" stroke="none" points="-4,4 -4,-256 644.397,-256 644.397,4 -4,4"/>
<!-- Anders -->
<g id="node1" class="node"><title>Anders</title>
<g id="a_node1"><a xlink:title="Anders!">
<ellipse fill="none" stroke="black" cx="36.3968" cy="-162" rx="36.2938" ry="18"/>
<text text-anchor="middle" x="36.3968" y="-158.3" font-family="Times,serif" font-size="14.00">Anders</text>
</a>
</g>
</g>
<!-- Jessica -->
<g id="node6" class="node"><title>Jessica</title>
<g id="a_node6"><a xlink:title="Jessica!">
<ellipse fill="none" stroke="black" cx="36.3968" cy="-90" rx="35.194" ry="18"/>
<text text-anchor="middle" x="36.3968" y="-86.3" font-family="Times,serif" font-size="14.00">Jessica</text>
</a>
</g>
</g>
<!-- Anders&#45;&gt;Jessica -->
<g id="edge1" class="edge"><title>Anders&#45;&gt;Jessica</title>
<path fill="none" stroke="black" d="M36.3968,-143.697C36.3968,-135.983 36.3968,-126.712 36.3968,-118.112"/>
<polygon fill="black" stroke="black" points="39.8969,-118.104 36.3968,-108.104 32.8969,-118.104 39.8969,-118.104"/>
</g>
<!-- Anna -->
<g id="node2" class="node"><title>Anna</title>
<g id="a_node2"><a xlink:title="Anna!">
<ellipse fill="none" stroke="black" cx="459.397" cy="-90" rx="29.795" ry="18"/>
<text text-anchor="middle" x="459.397" y="-86.3" font-family="Times,serif" font-size="14.00">Anna</text>
</a>
</g>
</g>
<!-- Astor -->
<g id="node3" class="node"><title>Astor</title>
<g id="a_node3"><a xlink:title="Astor!">
<ellipse fill="none" stroke="black" cx="75.3968" cy="-234" rx="30.5947" ry="18"/>
<text text-anchor="middle" x="75.3968" y="-230.3" font-family="Times,serif" font-size="14.00">Astor</text>
</a>
</g>
</g>
<!-- Astor&#45;&gt;Anders -->
<g id="edge2" class="edge"><title>Astor&#45;&gt;Anders</title>
<path fill="none" stroke="black" d="M66.3514,-216.765C61.6935,-208.404 55.9056,-198.016 50.6629,-188.606"/>
<polygon fill="black" stroke="black" points="53.5885,-186.666 45.6639,-179.633 47.4735,-190.073 53.5885,-186.666"/>
</g>
<!-- Kent -->
<g id="node8" class="node"><title>Kent</title>
<g id="a_node8"><a xlink:title="Kent!">
<ellipse fill="none" stroke="black" cx="118.397" cy="-162" rx="27.8951" ry="18"/>
<text text-anchor="middle" x="118.397" y="-158.3" font-family="Times,serif" font-size="14.00">Kent</text>
</a>
</g>
</g>
<!-- Astor&#45;&gt;Kent -->
<g id="edge3" class="edge"><title>Astor&#45;&gt;Kent</title>
<path fill="none" stroke="black" d="M85.3699,-216.765C90.6343,-208.195 97.2076,-197.494 103.101,-187.9"/>
<polygon fill="black" stroke="black" points="106.226,-189.5 108.478,-179.147 100.261,-185.836 106.226,-189.5"/>
</g>
<!-- Stig -->
<g id="node18" class="node"><title>Stig</title>
<g id="a_node18"><a xlink:title="Stig!">
<ellipse fill="none" stroke="black" cx="191.397" cy="-162" rx="27" ry="18"/>
<text text-anchor="middle" x="191.397" y="-158.3" font-family="Times,serif" font-size="14.00">Stig</text>
</a>
</g>
</g>
<!-- Astor&#45;&gt;Stig -->
<g id="edge4" class="edge"><title>Astor&#45;&gt;Stig</title>
<path fill="none" stroke="black" d="M96.1352,-220.485C114.868,-209.181 142.595,-192.449 163.311,-179.948"/>
<polygon fill="black" stroke="black" points="165.242,-182.871 171.995,-174.708 161.625,-176.878 165.242,-182.871"/>
</g>
<!-- Bodil -->
<g id="node4" class="node"><title>Bodil</title>
<g id="a_node4"><a xlink:title="Bodil!">
<ellipse fill="none" stroke="black" cx="277.397" cy="-162" rx="30.5947" ry="18"/>
<text text-anchor="middle" x="277.397" y="-158.3" font-family="Times,serif" font-size="14.00">Bodil</text>
</a>
</g>
</g>
<!-- Lisa -->
<g id="node11" class="node"><title>Lisa</title>
<g id="a_node11"><a xlink:title="Lisa!">
<ellipse fill="none" stroke="black" cx="117.397" cy="-90" rx="27" ry="18"/>
<text text-anchor="middle" x="117.397" y="-86.3" font-family="Times,serif" font-size="14.00">Lisa</text>
</a>
</g>
</g>
<!-- Bodil&#45;&gt;Lisa -->
<g id="edge5" class="edge"><title>Bodil&#45;&gt;Lisa</title>
<path fill="none" stroke="black" d="M253.045,-150.907C227.956,-140.435 187.774,-123.457 153.397,-108 151.6,-107.192 149.757,-106.354 147.901,-105.501"/>
<polygon fill="black" stroke="black" points="149.2,-102.245 138.656,-101.2 146.247,-108.592 149.2,-102.245"/>
</g>
<!-- Peter -->
<g id="node16" class="node"><title>Peter</title>
<g id="a_node16"><a xlink:title="Peter!">
<ellipse fill="none" stroke="black" cx="191.397" cy="-90" rx="28.6953" ry="18"/>
<text text-anchor="middle" x="191.397" y="-86.3" font-family="Times,serif" font-size="14.00">Peter</text>
</a>
</g>
</g>
<!-- Bodil&#45;&gt;Peter -->
<g id="edge6" class="edge"><title>Bodil&#45;&gt;Peter</title>
<path fill="none" stroke="black" d="M259.993,-146.834C247.357,-136.549 230.083,-122.488 216.031,-111.051"/>
<polygon fill="black" stroke="black" points="218.154,-108.266 208.189,-104.668 213.735,-113.695 218.154,-108.266"/>
</g>
<!-- Hasse -->
<g id="node5" class="node"><title>Hasse</title>
<g id="a_node5"><a xlink:title="Hasse!">
<ellipse fill="none" stroke="black" cx="297.397" cy="-234" rx="31.6951" ry="18"/>
<text text-anchor="middle" x="297.397" y="-230.3" font-family="Times,serif" font-size="14.00">Hasse</text>
</a>
</g>
</g>
<!-- Hasse&#45;&gt;Bodil -->
<g id="edge7" class="edge"><title>Hasse&#45;&gt;Bodil</title>
<path fill="none" stroke="black" d="M292.555,-216.055C290.295,-208.145 287.551,-198.54 285.022,-189.688"/>
<polygon fill="black" stroke="black" points="288.306,-188.443 282.194,-179.789 281.576,-190.366 288.306,-188.443"/>
</g>
<!-- Lilliann -->
<g id="node10" class="node"><title>Lilliann</title>
<g id="a_node10"><a xlink:title="Lilliann!">
<ellipse fill="none" stroke="black" cx="450.397" cy="-162" rx="38.1938" ry="18"/>
<text text-anchor="middle" x="450.397" y="-158.3" font-family="Times,serif" font-size="14.00">Lilliann</text>
</a>
</g>
</g>
<!-- Hasse&#45;&gt;Lilliann -->
<g id="edge8" class="edge"><title>Hasse&#45;&gt;Lilliann</title>
<path fill="none" stroke="black" d="M321.303,-222.062C346.297,-210.627 385.807,-192.551 414.539,-179.405"/>
<polygon fill="black" stroke="black" points="416.196,-182.496 423.834,-175.153 413.284,-176.131 416.196,-182.496"/>
</g>
<!-- Karin -->
<g id="node7" class="node"><title>Karin</title>
<g id="a_node7"><a xlink:title="Karin!">
<ellipse fill="none" stroke="black" cx="537.397" cy="-90" rx="30.5947" ry="18"/>
<text text-anchor="middle" x="537.397" y="-86.3" font-family="Times,serif" font-size="14.00">Karin</text>
</a>
</g>
</g>
<!-- Kent&#45;&gt;Lisa -->
<g id="edge9" class="edge"><title>Kent&#45;&gt;Lisa</title>
<path fill="none" stroke="black" d="M118.15,-143.697C118.039,-135.983 117.907,-126.712 117.784,-118.112"/>
<polygon fill="black" stroke="black" points="121.284,-118.053 117.641,-108.104 114.284,-118.153 121.284,-118.053"/>
</g>
<!-- Kent&#45;&gt;Peter -->
<g id="edge10" class="edge"><title>Kent&#45;&gt;Peter</title>
<path fill="none" stroke="black" d="M133.522,-146.496C143.702,-136.735 157.306,-123.69 168.767,-112.7"/>
<polygon fill="black" stroke="black" points="171.495,-114.933 176.291,-105.485 166.65,-109.88 171.495,-114.933"/>
</g>
<!-- Klara -->
<g id="node9" class="node"><title>Klara</title>
<g id="a_node9"><a xlink:title="Klara!">
<ellipse fill="none" stroke="black" cx="154.397" cy="-234" rx="30.5947" ry="18"/>
<text text-anchor="middle" x="154.397" y="-230.3" font-family="Times,serif" font-size="14.00">Klara</text>
</a>
</g>
</g>
<!-- Klara&#45;&gt;Anders -->
<g id="edge11" class="edge"><title>Klara&#45;&gt;Anders</title>
<path fill="none" stroke="black" d="M133.572,-220.647C115.36,-209.843 88.6425,-193.993 67.8293,-181.646"/>
<polygon fill="black" stroke="black" points="69.4103,-178.515 59.024,-176.423 65.8388,-184.535 69.4103,-178.515"/>
</g>
<!-- Klara&#45;&gt;Kent -->
<g id="edge12" class="edge"><title>Klara&#45;&gt;Kent</title>
<path fill="none" stroke="black" d="M145.865,-216.411C141.561,-208.042 136.248,-197.71 131.444,-188.37"/>
<polygon fill="black" stroke="black" points="134.553,-186.762 126.867,-179.47 128.328,-189.964 134.553,-186.762"/>
</g>
<!-- Klara&#45;&gt;Stig -->
<g id="edge13" class="edge"><title>Klara&#45;&gt;Stig</title>
<path fill="none" stroke="black" d="M163.165,-216.411C167.589,-208.042 173.05,-197.71 177.987,-188.37"/>
<polygon fill="black" stroke="black" points="181.112,-189.947 182.691,-179.47 174.924,-186.675 181.112,-189.947"/>
</g>
<!-- Lilliann&#45;&gt;Anna -->
<g id="edge14" class="edge"><title>Lilliann&#45;&gt;Anna</title>
<path fill="none" stroke="black" d="M452.621,-143.697C453.613,-135.983 454.805,-126.712 455.911,-118.112"/>
<polygon fill="black" stroke="black" points="459.394,-118.469 457.198,-108.104 452.451,-117.576 459.394,-118.469"/>
</g>
<!-- Lilliann&#45;&gt;Karin -->
<g id="edge15" class="edge"><title>Lilliann&#45;&gt;Karin</title>
<path fill="none" stroke="black" d="M468.847,-146.155C481.404,-136.051 498.186,-122.549 512.002,-111.433"/>
<polygon fill="black" stroke="black" points="514.559,-113.867 520.156,-104.872 510.171,-108.413 514.559,-113.867"/>
</g>
<!-- Sara -->
<g id="node17" class="node"><title>Sara</title>
<g id="a_node17"><a xlink:title="Sara!">
<ellipse fill="none" stroke="black" cx="613.397" cy="-90" rx="27" ry="18"/>
<text text-anchor="middle" x="613.397" y="-86.3" font-family="Times,serif" font-size="14.00">Sara</text>
</a>
</g>
</g>
<!-- Lilliann&#45;&gt;Sara -->
<g id="edge16" class="edge"><title>Lilliann&#45;&gt;Sara</title>
<path fill="none" stroke="black" d="M478.552,-149.683C504.392,-139.193 543.666,-122.993 577.397,-108 579.197,-107.2 581.042,-106.367 582.901,-105.519"/>
<polygon fill="black" stroke="black" points="584.551,-108.612 592.151,-101.23 581.606,-102.261 584.551,-108.612"/>
</g>
<!-- Melissa -->
<g id="node14" class="node"><title>Melissa</title>
<g id="a_node14"><a xlink:title="Melissa!">
<ellipse fill="none" stroke="black" cx="275.397" cy="-18" rx="38.1938" ry="18"/>
<text text-anchor="middle" x="275.397" y="-14.3" font-family="Times,serif" font-size="14.00">Melissa</text>
</a>
</g>
</g>
<!-- Lisa&#45;&gt;Melissa -->
<g id="edge17" class="edge"><title>Lisa&#45;&gt;Melissa</title>
<path fill="none" stroke="black" d="M138.666,-78.8212C143.496,-76.5475 148.612,-74.1683 153.397,-72 181.807,-59.1247 214.2,-45.0817 238.465,-34.6874"/>
<polygon fill="black" stroke="black" points="239.85,-37.9016 247.669,-30.7523 237.098,-31.4651 239.85,-37.9016"/>
</g>
<!-- Maj&#45;Britt -->
<g id="node12" class="node"><title>Maj&#45;Britt</title>
<g id="a_node12"><a xlink:title="Maj&#45;Britt!">
<ellipse fill="none" stroke="black" cx="431.397" cy="-234" rx="44.393" ry="18"/>
<text text-anchor="middle" x="431.397" y="-230.3" font-family="Times,serif" font-size="14.00">Maj&#45;Britt</text>
</a>
</g>
</g>
<!-- Maj&#45;Britt&#45;&gt;Bodil -->
<g id="edge18" class="edge"><title>Maj&#45;Britt&#45;&gt;Bodil</title>
<path fill="none" stroke="black" d="M402.791,-219.998C376.492,-208.043 337.525,-190.331 310.024,-177.83"/>
<polygon fill="black" stroke="black" points="311.366,-174.596 300.814,-173.644 308.469,-180.968 311.366,-174.596"/>
</g>
<!-- Maj&#45;Britt&#45;&gt;Lilliann -->
<g id="edge19" class="edge"><title>Maj&#45;Britt&#45;&gt;Lilliann</title>
<path fill="none" stroke="black" d="M435.996,-216.055C438.112,-208.261 440.674,-198.822 443.047,-190.079"/>
<polygon fill="black" stroke="black" points="446.466,-190.843 445.708,-180.275 439.71,-189.009 446.466,-190.843"/>
</g>
<!-- Marcus -->
<g id="node13" class="node"><title>Marcus</title>
<g id="a_node13"><a xlink:title="Marcus!">
<ellipse fill="none" stroke="black" cx="275.397" cy="-90" rx="37.8943" ry="18"/>
<text text-anchor="middle" x="275.397" y="-86.3" font-family="Times,serif" font-size="14.00">Marcus</text>
</a>
</g>
</g>
<!-- Marcus&#45;&gt;Melissa -->
<g id="edge20" class="edge"><title>Marcus&#45;&gt;Melissa</title>
<path fill="none" stroke="black" d="M275.397,-71.6966C275.397,-63.9827 275.397,-54.7125 275.397,-46.1124"/>
<polygon fill="black" stroke="black" points="278.897,-46.1043 275.397,-36.1043 271.897,-46.1044 278.897,-46.1043"/>
</g>
<!-- Morgan -->
<g id="node15" class="node"><title>Morgan</title>
<g id="a_node15"><a xlink:title="Morgan!">
<ellipse fill="none" stroke="black" cx="545.397" cy="-162" rx="38.9931" ry="18"/>
<text text-anchor="middle" x="545.397" y="-158.3" font-family="Times,serif" font-size="14.00">Morgan</text>
</a>
</g>
</g>
<!-- Morgan&#45;&gt;Anna -->
<g id="edge21" class="edge"><title>Morgan&#45;&gt;Anna</title>
<path fill="none" stroke="black" d="M526.736,-145.811C514.381,-135.755 498.029,-122.445 484.533,-111.46"/>
<polygon fill="black" stroke="black" points="486.525,-108.568 476.56,-104.97 482.106,-113.997 486.525,-108.568"/>
</g>
<!-- Morgan&#45;&gt;Karin -->
<g id="edge22" class="edge"><title>Morgan&#45;&gt;Karin</title>
<path fill="none" stroke="black" d="M543.419,-143.697C542.538,-135.983 541.478,-126.712 540.495,-118.112"/>
<polygon fill="black" stroke="black" points="543.964,-117.642 539.352,-108.104 537.01,-118.437 543.964,-117.642"/>
</g>
<!-- Morgan&#45;&gt;Sara -->
<g id="edge23" class="edge"><title>Morgan&#45;&gt;Sara</title>
<path fill="none" stroke="black" d="M560.827,-145.116C570.034,-135.638 581.862,-123.462 591.967,-113.06"/>
<polygon fill="black" stroke="black" points="594.5,-115.476 598.958,-105.864 589.479,-110.598 594.5,-115.476"/>
</g>
<!-- Susanna -->
<g id="node19" class="node"><title>Susanna</title>
<g id="a_node19"><a xlink:title="Susanna!">
<ellipse fill="none" stroke="black" cx="371.397" cy="-90" rx="40.0939" ry="18"/>
<text text-anchor="middle" x="371.397" y="-86.3" font-family="Times,serif" font-size="14.00">Susanna</text>
</a>
</g>
</g>
<!-- Susanna&#45;&gt;Melissa -->
<g id="edge24" class="edge"><title>Susanna&#45;&gt;Melissa</title>
<path fill="none" stroke="black" d="M351.038,-74.1548C337.327,-64.1574 319.052,-50.8319 303.9,-39.7834"/>
<polygon fill="black" stroke="black" points="305.54,-36.6475 295.397,-33.5838 301.415,-42.3036 305.54,-36.6475"/>
</g>
</g>
</svg>
