<?xml version="1.0" encoding="UTF-8" standalone="no"?>
<!DOCTYPE svg PUBLIC "-//W3C//DTD SVG 1.1//EN"
 "http://www.w3.org/Graphics/SVG/1.1/DTD/svg11.dtd">
<!-- Generated by graphviz version 2.38.0 (20140413.2041)
 -->
<!-- Title: G Pages: 1 -->
<svg width="1472pt" height="836pt"
 viewBox="0.00 0.00 1472.19 836.00" xmlns="http://www.w3.org/2000/svg" xmlns:xlink="http://www.w3.org/1999/xlink">
<g id="graph0" class="graph" transform="scale(1 1) rotate(0) translate(4 832)">
<title>G</title>
<polygon fill="white" stroke="none" points="-4,4 -4,-832 1468.19,-832 1468.19,4 -4,4"/>
<!-- Anders -->
<g id="node1" class="node"><title>Anders</title>
<g id="a_node1"><a xlink:title="Anders!">
<ellipse fill="none" stroke="black" cx="619.544" cy="-162" rx="36.2938" ry="18"/>
<text text-anchor="middle" x="619.544" y="-158.3" font-family="Times,serif" font-size="14.00">Anders</text>
</a>
</g>
</g>
<!-- Jessica -->
<g id="node23" class="node"><title>Jessica</title>
<g id="a_node23"><a xlink:title="Jessica!">
<ellipse fill="none" stroke="black" cx="619.544" cy="-90" rx="35.194" ry="18"/>
<text text-anchor="middle" x="619.544" y="-86.3" font-family="Times,serif" font-size="14.00">Jessica</text>
</a>
</g>
</g>
<!-- Anders&#45;&gt;Jessica -->
<g id="edge1" class="edge"><title>Anders&#45;&gt;Jessica</title>
<path fill="none" stroke="black" d="M619.544,-143.697C619.544,-135.983 619.544,-126.712 619.544,-118.112"/>
<polygon fill="black" stroke="black" points="623.044,-118.104 619.544,-108.104 616.044,-118.104 623.044,-118.104"/>
</g>
<!-- Anders Andersson -->
<g id="node2" class="node"><title>Anders Andersson</title>
<g id="a_node2"><a xlink:title="Anders Andersson!">
<ellipse fill="none" stroke="black" cx="1123.54" cy="-450" rx="76.0865" ry="18"/>
<text text-anchor="middle" x="1123.54" y="-446.3" font-family="Times,serif" font-size="14.00">Anders Andersson</text>
</a>
</g>
</g>
<!-- Karl Andersson -->
<g id="node28" class="node"><title>Karl Andersson</title>
<g id="a_node28"><a xlink:title="Karl Andersson!">
<ellipse fill="none" stroke="black" cx="940.544" cy="-378" rx="66.0889" ry="18"/>
<text text-anchor="middle" x="940.544" y="-374.3" font-family="Times,serif" font-size="14.00">Karl Andersson</text>
</a>
</g>
</g>
<!-- Anders Andersson&#45;&gt;Karl Andersson -->
<g id="edge2" class="edge"><title>Anders Andersson&#45;&gt;Karl Andersson</title>
<path fill="none" stroke="black" d="M1085.18,-434.326C1056.53,-423.365 1017.23,-408.333 986.829,-396.705"/>
<polygon fill="black" stroke="black" points="987.886,-393.362 977.296,-393.058 985.385,-399.9 987.886,-393.362"/>
</g>
<!-- Anders Olsson -->
<g id="node3" class="node"><title>Anders Olsson</title>
<g id="a_node3"><a xlink:title="Anders Olsson!">
<ellipse fill="none" stroke="black" cx="1241.54" cy="-522" rx="63.0888" ry="18"/>
<text text-anchor="middle" x="1241.54" y="-518.3" font-family="Times,serif" font-size="14.00">Anders Olsson</text>
</a>
</g>
</g>
<!-- Anders Olsson&#45;&gt;Anders Andersson -->
<g id="edge3" class="edge"><title>Anders Olsson&#45;&gt;Anders Andersson</title>
<path fill="none" stroke="black" d="M1215.36,-505.465C1198.94,-495.724 1177.54,-483.033 1159.54,-472.353"/>
<polygon fill="black" stroke="black" points="1160.86,-469.069 1150.48,-466.977 1157.29,-475.089 1160.86,-469.069"/>
</g>
<!-- Anna -->
<g id="node4" class="node"><title>Anna</title>
<g id="a_node4"><a xlink:title="Anna!">
<ellipse fill="none" stroke="black" cx="1081.54" cy="-90" rx="29.795" ry="18"/>
<text text-anchor="middle" x="1081.54" y="-86.3" font-family="Times,serif" font-size="14.00">Anna</text>
</a>
</g>
</g>
<!-- Anna Catrina Andersdotter -->
<g id="node5" class="node"><title>Anna Catrina Andersdotter</title>
<g id="a_node5"><a xlink:title="Anna Catrina Andersdotter!">
<ellipse fill="none" stroke="black" cx="887.544" cy="-522" rx="106.681" ry="18"/>
<text text-anchor="middle" x="887.544" y="-518.3" font-family="Times,serif" font-size="14.00">Anna Catrina Andersdotter</text>
</a>
</g>
</g>
<!-- Maria Jacobsdotter -->
<g id="node42" class="node"><title>Maria Jacobsdotter</title>
<g id="a_node42"><a xlink:title="Maria Jacobsdotter!">
<ellipse fill="none" stroke="black" cx="738.544" cy="-450" rx="78.7863" ry="18"/>
<text text-anchor="middle" x="738.544" y="-446.3" font-family="Times,serif" font-size="14.00">Maria Jacobsdotter</text>
</a>
</g>
</g>
<!-- Anna Catrina Andersdotter&#45;&gt;Maria Jacobsdotter -->
<g id="edge4" class="edge"><title>Anna Catrina Andersdotter&#45;&gt;Maria Jacobsdotter</title>
<path fill="none" stroke="black" d="M853.36,-504.941C831.688,-494.759 803.502,-481.517 780.48,-470.702"/>
<polygon fill="black" stroke="black" points="781.829,-467.468 771.289,-466.384 778.852,-473.804 781.829,-467.468"/>
</g>
<!-- Anna Jönsdotter -->
<g id="node6" class="node"><title>Anna Jönsdotter</title>
<g id="a_node6"><a xlink:title="Anna Jönsdotter!">
<ellipse fill="none" stroke="black" cx="649.544" cy="-738" rx="68.4888" ry="18"/>
<text text-anchor="middle" x="649.544" y="-734.3" font-family="Times,serif" font-size="14.00">Anna Jönsdotter</text>
</a>
</g>
</g>
<!-- Jacob Jönsson -->
<g id="node20" class="node"><title>Jacob Jönsson</title>
<g id="a_node20"><a xlink:title="Jacob Jönsson!">
<ellipse fill="none" stroke="black" cx="694.544" cy="-666" rx="61.1893" ry="18"/>
<text text-anchor="middle" x="694.544" y="-662.3" font-family="Times,serif" font-size="14.00">Jacob Jönsson</text>
</a>
</g>
</g>
<!-- Anna Jönsdotter&#45;&gt;Jacob Jönsson -->
<g id="edge5" class="edge"><title>Anna Jönsdotter&#45;&gt;Jacob Jönsson</title>
<path fill="none" stroke="black" d="M660.437,-720.055C665.799,-711.715 672.371,-701.491 678.311,-692.252"/>
<polygon fill="black" stroke="black" points="681.287,-694.093 683.751,-683.789 675.399,-690.308 681.287,-694.093"/>
</g>
<!-- Anna Nilsdotter -->
<g id="node7" class="node"><title>Anna Nilsdotter</title>
<g id="a_node7"><a xlink:title="Anna Nilsdotter!">
<ellipse fill="none" stroke="black" cx="1394.54" cy="-522" rx="67.6881" ry="18"/>
<text text-anchor="middle" x="1394.54" y="-518.3" font-family="Times,serif" font-size="14.00">Anna Nilsdotter</text>
</a>
</g>
</g>
<!-- Niklas Nilsson -->
<g id="node46" class="node"><title>Niklas Nilsson</title>
<g id="a_node46"><a xlink:title="Niklas Nilsson!">
<ellipse fill="none" stroke="black" cx="1353.54" cy="-450" rx="63.0888" ry="18"/>
<text text-anchor="middle" x="1353.54" y="-446.3" font-family="Times,serif" font-size="14.00">Niklas Nilsson</text>
</a>
</g>
</g>
<!-- Anna Nilsdotter&#45;&gt;Niklas Nilsson -->
<g id="edge6" class="edge"><title>Anna Nilsdotter&#45;&gt;Niklas Nilsson</title>
<path fill="none" stroke="black" d="M1384.62,-504.055C1379.78,-495.801 1373.87,-485.701 1368.5,-476.538"/>
<polygon fill="black" stroke="black" points="1371.45,-474.649 1363.38,-467.789 1365.41,-478.187 1371.45,-474.649"/>
</g>
<!-- Astor -->
<g id="node8" class="node"><title>Astor</title>
<g id="a_node8"><a xlink:title="Astor!">
<ellipse fill="none" stroke="black" cx="658.544" cy="-234" rx="30.5947" ry="18"/>
<text text-anchor="middle" x="658.544" y="-230.3" font-family="Times,serif" font-size="14.00">Astor</text>
</a>
</g>
</g>
<!-- Astor&#45;&gt;Anders -->
<g id="edge7" class="edge"><title>Astor&#45;&gt;Anders</title>
<path fill="none" stroke="black" d="M649.498,-216.765C644.841,-208.404 639.053,-198.016 633.81,-188.606"/>
<polygon fill="black" stroke="black" points="636.736,-186.666 628.811,-179.633 630.621,-190.073 636.736,-186.666"/>
</g>
<!-- Kent -->
<g id="node29" class="node"><title>Kent</title>
<g id="a_node29"><a xlink:title="Kent!">
<ellipse fill="none" stroke="black" cx="773.544" cy="-162" rx="27.8951" ry="18"/>
<text text-anchor="middle" x="773.544" y="-158.3" font-family="Times,serif" font-size="14.00">Kent</text>
</a>
</g>
</g>
<!-- Astor&#45;&gt;Kent -->
<g id="edge8" class="edge"><title>Astor&#45;&gt;Kent</title>
<path fill="none" stroke="black" d="M679.104,-220.485C697.563,-209.249 724.83,-192.652 745.326,-180.176"/>
<polygon fill="black" stroke="black" points="747.208,-183.128 753.93,-174.939 743.568,-177.149 747.208,-183.128"/>
</g>
<!-- Stig -->
<g id="node55" class="node"><title>Stig</title>
<g id="a_node55"><a xlink:title="Stig!">
<ellipse fill="none" stroke="black" cx="700.544" cy="-162" rx="27" ry="18"/>
<text text-anchor="middle" x="700.544" y="-158.3" font-family="Times,serif" font-size="14.00">Stig</text>
</a>
</g>
</g>
<!-- Astor&#45;&gt;Stig -->
<g id="edge9" class="edge"><title>Astor&#45;&gt;Stig</title>
<path fill="none" stroke="black" d="M668.285,-216.765C673.427,-208.195 679.847,-197.494 685.604,-187.9"/>
<polygon fill="black" stroke="black" points="688.712,-189.523 690.855,-179.147 682.709,-185.921 688.712,-189.523"/>
</g>
<!-- Barbro Persdotter -->
<g id="node9" class="node"><title>Barbro Persdotter</title>
<g id="a_node9"><a xlink:title="Barbro Persdotter!">
<ellipse fill="none" stroke="black" cx="1241.54" cy="-594" rx="73.387" ry="18"/>
<text text-anchor="middle" x="1241.54" y="-590.3" font-family="Times,serif" font-size="14.00">Barbro Persdotter</text>
</a>
</g>
</g>
<!-- Barbro Persdotter&#45;&gt;Anders Olsson -->
<g id="edge10" class="edge"><title>Barbro Persdotter&#45;&gt;Anders Olsson</title>
<path fill="none" stroke="black" d="M1241.54,-575.697C1241.54,-567.983 1241.54,-558.712 1241.54,-550.112"/>
<polygon fill="black" stroke="black" points="1245.04,-550.104 1241.54,-540.104 1238.04,-550.104 1245.04,-550.104"/>
</g>
<!-- Bodil -->
<g id="node10" class="node"><title>Bodil</title>
<g id="a_node10"><a xlink:title="Bodil!">
<ellipse fill="none" stroke="black" cx="999.544" cy="-162" rx="30.5947" ry="18"/>
<text text-anchor="middle" x="999.544" y="-158.3" font-family="Times,serif" font-size="14.00">Bodil</text>
</a>
</g>
</g>
<!-- Lisa -->
<g id="node38" class="node"><title>Lisa</title>
<g id="a_node38"><a xlink:title="Lisa!">
<ellipse fill="none" stroke="black" cx="736.544" cy="-90" rx="27" ry="18"/>
<text text-anchor="middle" x="736.544" y="-86.3" font-family="Times,serif" font-size="14.00">Lisa</text>
</a>
</g>
</g>
<!-- Bodil&#45;&gt;Lisa -->
<g id="edge11" class="edge"><title>Bodil&#45;&gt;Lisa</title>
<path fill="none" stroke="black" d="M976.162,-150.086C970.783,-147.851 965.029,-145.673 959.544,-144 878.588,-119.309 852.999,-134.277 772.544,-108 770.622,-107.372 768.669,-106.666 766.718,-105.908"/>
<polygon fill="black" stroke="black" points="767.692,-102.517 757.121,-101.8 764.937,-108.952 767.692,-102.517"/>
</g>
<!-- Peter -->
<g id="node52" class="node"><title>Peter</title>
<g id="a_node52"><a xlink:title="Peter!">
<ellipse fill="none" stroke="black" cx="1002.54" cy="-90" rx="28.6953" ry="18"/>
<text text-anchor="middle" x="1002.54" y="-86.3" font-family="Times,serif" font-size="14.00">Peter</text>
</a>
</g>
</g>
<!-- Bodil&#45;&gt;Peter -->
<g id="edge12" class="edge"><title>Bodil&#45;&gt;Peter</title>
<path fill="none" stroke="black" d="M1000.29,-143.697C1000.62,-135.983 1001.01,-126.712 1001.38,-118.112"/>
<polygon fill="black" stroke="black" points="1004.88,-118.245 1001.81,-108.104 997.886,-117.945 1004.88,-118.245"/>
</g>
<!-- Carl August Niklasson -->
<g id="node11" class="node"><title>Carl August Niklasson</title>
<g id="a_node11"><a xlink:title="Carl August Niklasson!">
<ellipse fill="none" stroke="black" cx="1274.54" cy="-378" rx="90.9839" ry="18"/>
<text text-anchor="middle" x="1274.54" y="-374.3" font-family="Times,serif" font-size="14.00">Carl August Niklasson</text>
</a>
</g>
</g>
<!-- Johan Niklas Karlsson -->
<g id="node24" class="node"><title>Johan Niklas Karlsson</title>
<g id="a_node24"><a xlink:title="Johan Niklas Karlsson!">
<ellipse fill="none" stroke="black" cx="1263.54" cy="-306" rx="90.1842" ry="18"/>
<text text-anchor="middle" x="1263.54" y="-302.3" font-family="Times,serif" font-size="14.00">Johan Niklas Karlsson</text>
</a>
</g>
</g>
<!-- Carl August Niklasson&#45;&gt;Johan Niklas Karlsson -->
<g id="edge13" class="edge"><title>Carl August Niklasson&#45;&gt;Johan Niklas Karlsson</title>
<path fill="none" stroke="black" d="M1271.82,-359.697C1270.61,-351.983 1269.16,-342.712 1267.8,-334.112"/>
<polygon fill="black" stroke="black" points="1271.24,-333.44 1266.23,-324.104 1264.33,-334.526 1271.24,-333.44"/>
</g>
<!-- Elin Andersdotter -->
<g id="node12" class="node"><title>Elin Andersdotter</title>
<g id="a_node12"><a xlink:title="Elin Andersdotter!">
<ellipse fill="none" stroke="black" cx="230.544" cy="-594" rx="73.387" ry="18"/>
<text text-anchor="middle" x="230.544" y="-590.3" font-family="Times,serif" font-size="14.00">Elin Andersdotter</text>
</a>
</g>
</g>
<!-- Kersti Olsdotter -->
<g id="node30" class="node"><title>Kersti Olsdotter</title>
<g id="a_node30"><a xlink:title="Kersti Olsdotter!">
<ellipse fill="none" stroke="black" cx="230.544" cy="-522" rx="67.6881" ry="18"/>
<text text-anchor="middle" x="230.544" y="-518.3" font-family="Times,serif" font-size="14.00">Kersti Olsdotter</text>
</a>
</g>
</g>
<!-- Elin Andersdotter&#45;&gt;Kersti Olsdotter -->
<g id="edge14" class="edge"><title>Elin Andersdotter&#45;&gt;Kersti Olsdotter</title>
<path fill="none" stroke="black" d="M230.544,-575.697C230.544,-567.983 230.544,-558.712 230.544,-550.112"/>
<polygon fill="black" stroke="black" points="234.044,-550.104 230.544,-540.104 227.044,-550.104 234.044,-550.104"/>
</g>
<!-- Elsa Andersdotter -->
<g id="node13" class="node"><title>Elsa Andersdotter</title>
<g id="a_node13"><a xlink:title="Elsa Andersdotter!">
<ellipse fill="none" stroke="black" cx="1086.54" cy="-522" rx="74.187" ry="18"/>
<text text-anchor="middle" x="1086.54" y="-518.3" font-family="Times,serif" font-size="14.00">Elsa Andersdotter</text>
</a>
</g>
</g>
<!-- Elsa Andersdotter&#45;&gt;Anders Andersson -->
<g id="edge15" class="edge"><title>Elsa Andersdotter&#45;&gt;Anders Andersson</title>
<path fill="none" stroke="black" d="M1095.5,-504.055C1099.75,-496.007 1104.94,-486.205 1109.68,-477.226"/>
<polygon fill="black" stroke="black" points="1112.83,-478.752 1114.41,-468.275 1106.65,-475.481 1112.83,-478.752"/>
</g>
<!-- Ester Andersson -->
<g id="node14" class="node"><title>Ester Andersson</title>
<g id="a_node14"><a xlink:title="Ester Andersson!">
<ellipse fill="none" stroke="black" cx="940.544" cy="-306" rx="68.7879" ry="18"/>
<text text-anchor="middle" x="940.544" y="-302.3" font-family="Times,serif" font-size="14.00">Ester Andersson</text>
</a>
</g>
</g>
<!-- Hasse -->
<g id="node15" class="node"><title>Hasse</title>
<g id="a_node15"><a xlink:title="Hasse!">
<ellipse fill="none" stroke="black" cx="961.544" cy="-234" rx="31.6951" ry="18"/>
<text text-anchor="middle" x="961.544" y="-230.3" font-family="Times,serif" font-size="14.00">Hasse</text>
</a>
</g>
</g>
<!-- Ester Andersson&#45;&gt;Hasse -->
<g id="edge16" class="edge"><title>Ester Andersson&#45;&gt;Hasse</title>
<path fill="none" stroke="black" d="M945.735,-287.697C948.074,-279.898 950.891,-270.509 953.495,-261.829"/>
<polygon fill="black" stroke="black" points="956.891,-262.688 956.413,-252.104 950.187,-260.677 956.891,-262.688"/>
</g>
<!-- Hasse&#45;&gt;Bodil -->
<g id="edge17" class="edge"><title>Hasse&#45;&gt;Bodil</title>
<path fill="none" stroke="black" d="M970.549,-216.411C975.092,-208.042 980.701,-197.71 985.772,-188.37"/>
<polygon fill="black" stroke="black" points="988.908,-189.928 990.603,-179.47 982.756,-186.589 988.908,-189.928"/>
</g>
<!-- Lilliann -->
<g id="node37" class="node"><title>Lilliann</title>
<g id="a_node37"><a xlink:title="Lilliann!">
<ellipse fill="none" stroke="black" cx="1182.54" cy="-162" rx="38.1938" ry="18"/>
<text text-anchor="middle" x="1182.54" y="-158.3" font-family="Times,serif" font-size="14.00">Lilliann</text>
</a>
</g>
</g>
<!-- Hasse&#45;&gt;Lilliann -->
<g id="edge18" class="edge"><title>Hasse&#45;&gt;Lilliann</title>
<path fill="none" stroke="black" d="M989.408,-224.992C1023.88,-214.974 1084.31,-197.056 1135.54,-180 1138.25,-179.101 1141.03,-178.153 1143.82,-177.183"/>
<polygon fill="black" stroke="black" points="1145.02,-180.47 1153.29,-173.844 1142.7,-173.869 1145.02,-180.47"/>
</g>
<!-- Said -->
<g id="node53" class="node"><title>Said</title>
<g id="a_node53"><a xlink:title="Said!">
<ellipse fill="none" stroke="black" cx="923.544" cy="-162" rx="27" ry="18"/>
<text text-anchor="middle" x="923.544" y="-158.3" font-family="Times,serif" font-size="14.00">Said</text>
</a>
</g>
</g>
<!-- Hasse&#45;&gt;Said -->
<g id="edge19" class="edge"><title>Hasse&#45;&gt;Said</title>
<path fill="none" stroke="black" d="M952.538,-216.411C947.995,-208.042 942.386,-197.71 937.316,-188.37"/>
<polygon fill="black" stroke="black" points="940.332,-186.589 932.485,-179.47 934.18,-189.928 940.332,-186.589"/>
</g>
<!-- Henrik Olsson -->
<g id="node16" class="node"><title>Henrik Olsson</title>
<g id="a_node16"><a xlink:title="Henrik Olsson!">
<ellipse fill="none" stroke="black" cx="69.5438" cy="-666" rx="61.99" ry="18"/>
<text text-anchor="middle" x="69.5438" y="-662.3" font-family="Times,serif" font-size="14.00">Henrik Olsson</text>
</a>
</g>
</g>
<!-- Olof Henriksson -->
<g id="node50" class="node"><title>Olof Henriksson</title>
<g id="a_node50"><a xlink:title="Olof Henriksson!">
<ellipse fill="none" stroke="black" cx="69.5438" cy="-594" rx="69.5877" ry="18"/>
<text text-anchor="middle" x="69.5438" y="-590.3" font-family="Times,serif" font-size="14.00">Olof Henriksson</text>
</a>
</g>
</g>
<!-- Henrik Olsson&#45;&gt;Olof Henriksson -->
<g id="edge20" class="edge"><title>Henrik Olsson&#45;&gt;Olof Henriksson</title>
<path fill="none" stroke="black" d="M69.5438,-647.697C69.5438,-639.983 69.5438,-630.712 69.5438,-622.112"/>
<polygon fill="black" stroke="black" points="73.0439,-622.104 69.5438,-612.104 66.0439,-622.104 73.0439,-622.104"/>
</g>
<!-- Inga Jönsdotter -->
<g id="node17" class="node"><title>Inga Jönsdotter</title>
<g id="a_node17"><a xlink:title="Inga Jönsdotter!">
<ellipse fill="none" stroke="black" cx="716.544" cy="-810" rx="64.9885" ry="18"/>
<text text-anchor="middle" x="716.544" y="-806.3" font-family="Times,serif" font-size="14.00">Inga Jönsdotter</text>
</a>
</g>
</g>
<!-- Jöns Jacobsson -->
<g id="node25" class="node"><title>Jöns Jacobsson</title>
<g id="a_node25"><a xlink:title="Jöns Jacobsson!">
<ellipse fill="none" stroke="black" cx="800.544" cy="-738" rx="64.189" ry="18"/>
<text text-anchor="middle" x="800.544" y="-734.3" font-family="Times,serif" font-size="14.00">Jöns Jacobsson</text>
</a>
</g>
</g>
<!-- Inga Jönsdotter&#45;&gt;Jöns Jacobsson -->
<g id="edge21" class="edge"><title>Inga Jönsdotter&#45;&gt;Jöns Jacobsson</title>
<path fill="none" stroke="black" d="M736.026,-792.765C746.973,-783.642 760.818,-772.105 772.874,-762.059"/>
<polygon fill="black" stroke="black" points="775.435,-764.48 780.876,-755.39 770.953,-759.103 775.435,-764.48"/>
</g>
<!-- Jacob Jacobsson -->
<g id="node18" class="node"><title>Jacob Jacobsson</title>
<g id="a_node18"><a xlink:title="Jacob Jacobsson!">
<ellipse fill="none" stroke="black" cx="694.544" cy="-522" rx="68.7879" ry="18"/>
<text text-anchor="middle" x="694.544" y="-518.3" font-family="Times,serif" font-size="14.00">Jacob Jacobsson</text>
</a>
</g>
</g>
<!-- Jacob Jacobsson&#45;&gt;Maria Jacobsdotter -->
<g id="edge22" class="edge"><title>Jacob Jacobsson&#45;&gt;Maria Jacobsdotter</title>
<path fill="none" stroke="black" d="M705.195,-504.055C710.307,-495.922 716.545,-485.998 722.237,-476.943"/>
<polygon fill="black" stroke="black" points="725.327,-478.604 727.685,-468.275 719.4,-474.879 725.327,-478.604"/>
</g>
<!-- Jacob Jonsson Banck -->
<g id="node19" class="node"><title>Jacob Jonsson Banck</title>
<g id="a_node19"><a xlink:title="Jacob Jonsson Banck!">
<ellipse fill="none" stroke="black" cx="885.544" cy="-810" rx="85.5853" ry="18"/>
<text text-anchor="middle" x="885.544" y="-806.3" font-family="Times,serif" font-size="14.00">Jacob Jonsson Banck</text>
</a>
</g>
</g>
<!-- Jacob Jonsson Banck&#45;&gt;Jöns Jacobsson -->
<g id="edge23" class="edge"><title>Jacob Jonsson Banck&#45;&gt;Jöns Jacobsson</title>
<path fill="none" stroke="black" d="M865.4,-792.411C854.311,-783.279 840.384,-771.809 828.28,-761.842"/>
<polygon fill="black" stroke="black" points="830.194,-758.884 820.25,-755.228 825.744,-764.287 830.194,-758.884"/>
</g>
<!-- Marta Jacobsdotter -->
<g id="node43" class="node"><title>Marta Jacobsdotter</title>
<g id="a_node43"><a xlink:title="Marta Jacobsdotter!">
<ellipse fill="none" stroke="black" cx="694.544" cy="-594" rx="78.7863" ry="18"/>
<text text-anchor="middle" x="694.544" y="-590.3" font-family="Times,serif" font-size="14.00">Marta Jacobsdotter</text>
</a>
</g>
</g>
<!-- Jacob Jönsson&#45;&gt;Marta Jacobsdotter -->
<g id="edge24" class="edge"><title>Jacob Jönsson&#45;&gt;Marta Jacobsdotter</title>
<path fill="none" stroke="black" d="M694.544,-647.697C694.544,-639.983 694.544,-630.712 694.544,-622.112"/>
<polygon fill="black" stroke="black" points="698.044,-622.104 694.544,-612.104 691.044,-622.104 698.044,-622.104"/>
</g>
<!-- Jacob Larsson -->
<g id="node21" class="node"><title>Jacob Larsson</title>
<g id="a_node21"><a xlink:title="Jacob Larsson!">
<ellipse fill="none" stroke="black" cx="451.544" cy="-522" rx="61.1893" ry="18"/>
<text text-anchor="middle" x="451.544" y="-518.3" font-family="Times,serif" font-size="14.00">Jacob Larsson</text>
</a>
</g>
</g>
<!-- Nils Jacobsson -->
<g id="node48" class="node"><title>Nils Jacobsson</title>
<g id="a_node48"><a xlink:title="Nils Jacobsson!">
<ellipse fill="none" stroke="black" cx="451.544" cy="-450" rx="63.8893" ry="18"/>
<text text-anchor="middle" x="451.544" y="-446.3" font-family="Times,serif" font-size="14.00">Nils Jacobsson</text>
</a>
</g>
</g>
<!-- Jacob Larsson&#45;&gt;Nils Jacobsson -->
<g id="edge25" class="edge"><title>Jacob Larsson&#45;&gt;Nils Jacobsson</title>
<path fill="none" stroke="black" d="M451.544,-503.697C451.544,-495.983 451.544,-486.712 451.544,-478.112"/>
<polygon fill="black" stroke="black" points="455.044,-478.104 451.544,-468.104 448.044,-478.104 455.044,-478.104"/>
</g>
<!-- Jacob Olsson -->
<g id="node22" class="node"><title>Jacob Olsson</title>
<g id="a_node22"><a xlink:title="Jacob Olsson!">
<ellipse fill="none" stroke="black" cx="848.544" cy="-594" rx="57.6901" ry="18"/>
<text text-anchor="middle" x="848.544" y="-590.3" font-family="Times,serif" font-size="14.00">Jacob Olsson</text>
</a>
</g>
</g>
<!-- Jacob Olsson&#45;&gt;Jacob Jacobsson -->
<g id="edge26" class="edge"><title>Jacob Olsson&#45;&gt;Jacob Jacobsson</title>
<path fill="none" stroke="black" d="M817.38,-578.834C794.156,-568.278 762.185,-553.746 736.682,-542.154"/>
<polygon fill="black" stroke="black" points="737.808,-538.821 727.256,-537.869 734.912,-545.194 737.808,-538.821"/>
</g>
<!-- Maj&#45;Britt -->
<g id="node40" class="node"><title>Maj&#45;Britt</title>
<g id="a_node40"><a xlink:title="Maj&#45;Britt!">
<ellipse fill="none" stroke="black" cx="1182.54" cy="-234" rx="44.393" ry="18"/>
<text text-anchor="middle" x="1182.54" y="-230.3" font-family="Times,serif" font-size="14.00">Maj&#45;Britt</text>
</a>
</g>
</g>
<!-- Johan Niklas Karlsson&#45;&gt;Maj&#45;Britt -->
<g id="edge27" class="edge"><title>Johan Niklas Karlsson&#45;&gt;Maj&#45;Britt</title>
<path fill="none" stroke="black" d="M1244.35,-288.411C1233.55,-279.082 1219.93,-267.313 1208.23,-257.199"/>
<polygon fill="black" stroke="black" points="1210.35,-254.401 1200.49,-250.511 1205.77,-259.698 1210.35,-254.401"/>
</g>
<!-- Jöns Jacobsson&#45;&gt;Jacob Jönsson -->
<g id="edge28" class="edge"><title>Jöns Jacobsson&#45;&gt;Jacob Jönsson</title>
<path fill="none" stroke="black" d="M776.491,-721.116C761.854,-711.45 742.968,-698.978 727.016,-688.444"/>
<polygon fill="black" stroke="black" points="728.775,-685.411 718.502,-682.821 724.918,-691.253 728.775,-685.411"/>
</g>
<!-- Kari Jacobsdotter -->
<g id="node26" class="node"><title>Kari Jacobsdotter</title>
<g id="a_node26"><a xlink:title="Kari Jacobsdotter!">
<ellipse fill="none" stroke="black" cx="525.544" cy="-594" rx="72.5877" ry="18"/>
<text text-anchor="middle" x="525.544" y="-590.3" font-family="Times,serif" font-size="14.00">Kari Jacobsdotter</text>
</a>
</g>
</g>
<!-- Kari Jacobsdotter&#45;&gt;Jacob Larsson -->
<g id="edge29" class="edge"><title>Kari Jacobsdotter&#45;&gt;Jacob Larsson</title>
<path fill="none" stroke="black" d="M508.007,-576.411C498.515,-567.432 486.633,-556.193 476.221,-546.344"/>
<polygon fill="black" stroke="black" points="478.625,-543.799 468.955,-539.47 473.814,-548.885 478.625,-543.799"/>
</g>
<!-- Karin -->
<g id="node27" class="node"><title>Karin</title>
<g id="a_node27"><a xlink:title="Karin!">
<ellipse fill="none" stroke="black" cx="1159.54" cy="-90" rx="30.5947" ry="18"/>
<text text-anchor="middle" x="1159.54" y="-86.3" font-family="Times,serif" font-size="14.00">Karin</text>
</a>
</g>
</g>
<!-- Karl Andersson&#45;&gt;Ester Andersson -->
<g id="edge30" class="edge"><title>Karl Andersson&#45;&gt;Ester Andersson</title>
<path fill="none" stroke="black" d="M940.544,-359.697C940.544,-351.983 940.544,-342.712 940.544,-334.112"/>
<polygon fill="black" stroke="black" points="944.044,-334.104 940.544,-324.104 937.044,-334.104 944.044,-334.104"/>
</g>
<!-- Kent&#45;&gt;Lisa -->
<g id="edge31" class="edge"><title>Kent&#45;&gt;Lisa</title>
<path fill="none" stroke="black" d="M764.962,-144.765C760.479,-136.283 754.893,-125.714 749.862,-116.197"/>
<polygon fill="black" stroke="black" points="752.846,-114.353 745.079,-107.147 746.658,-117.624 752.846,-114.353"/>
</g>
<!-- Kent&#45;&gt;Peter -->
<g id="edge32" class="edge"><title>Kent&#45;&gt;Peter</title>
<path fill="none" stroke="black" d="M799.57,-155.091C836.692,-146.369 906.751,-128.813 964.544,-108 966.643,-107.244 968.789,-106.423 970.939,-105.564"/>
<polygon fill="black" stroke="black" points="972.41,-108.742 980.267,-101.634 969.693,-102.291 972.41,-108.742"/>
</g>
<!-- Kersti Olsdotter&#45;&gt;Nils Jacobsson -->
<g id="edge33" class="edge"><title>Kersti Olsdotter&#45;&gt;Nils Jacobsson</title>
<path fill="none" stroke="black" d="M272.372,-507.751C308.941,-496.168 362.136,-479.319 401.063,-466.989"/>
<polygon fill="black" stroke="black" points="402.158,-470.314 410.634,-463.958 400.044,-463.641 402.158,-470.314"/>
</g>
<!-- Kerstin Olsdotter -->
<g id="node31" class="node"><title>Kerstin Olsdotter</title>
<g id="a_node31"><a xlink:title="Kerstin Olsdotter!">
<ellipse fill="none" stroke="black" cx="318.544" cy="-738" rx="71.4873" ry="18"/>
<text text-anchor="middle" x="318.544" y="-734.3" font-family="Times,serif" font-size="14.00">Kerstin Olsdotter</text>
</a>
</g>
</g>
<!-- Lars Nilsson -->
<g id="node35" class="node"><title>Lars Nilsson</title>
<g id="a_node35"><a xlink:title="Lars Nilsson!">
<ellipse fill="none" stroke="black" cx="378.544" cy="-666" rx="55.7903" ry="18"/>
<text text-anchor="middle" x="378.544" y="-662.3" font-family="Times,serif" font-size="14.00">Lars Nilsson</text>
</a>
</g>
</g>
<!-- Kerstin Olsdotter&#45;&gt;Lars Nilsson -->
<g id="edge34" class="edge"><title>Kerstin Olsdotter&#45;&gt;Lars Nilsson</title>
<path fill="none" stroke="black" d="M333.068,-720.055C340.438,-711.457 349.524,-700.857 357.632,-691.397"/>
<polygon fill="black" stroke="black" points="360.303,-693.659 364.153,-683.789 354.988,-689.104 360.303,-693.659"/>
</g>
<!-- Klara -->
<g id="node32" class="node"><title>Klara</title>
<g id="a_node32"><a xlink:title="Klara!">
<ellipse fill="none" stroke="black" cx="737.544" cy="-234" rx="30.5947" ry="18"/>
<text text-anchor="middle" x="737.544" y="-230.3" font-family="Times,serif" font-size="14.00">Klara</text>
</a>
</g>
</g>
<!-- Klara&#45;&gt;Anders -->
<g id="edge35" class="edge"><title>Klara&#45;&gt;Anders</title>
<path fill="none" stroke="black" d="M716.719,-220.647C698.507,-209.843 671.79,-193.993 650.976,-181.646"/>
<polygon fill="black" stroke="black" points="652.557,-178.515 642.171,-176.423 648.986,-184.535 652.557,-178.515"/>
</g>
<!-- Klara&#45;&gt;Kent -->
<g id="edge36" class="edge"><title>Klara&#45;&gt;Kent</title>
<path fill="none" stroke="black" d="M746.075,-216.411C750.379,-208.042 755.693,-197.71 760.497,-188.37"/>
<polygon fill="black" stroke="black" points="763.613,-189.964 765.074,-179.47 757.388,-186.762 763.613,-189.964"/>
</g>
<!-- Klara&#45;&gt;Stig -->
<g id="edge37" class="edge"><title>Klara&#45;&gt;Stig</title>
<path fill="none" stroke="black" d="M728.775,-216.411C724.352,-208.042 718.89,-197.71 713.954,-188.37"/>
<polygon fill="black" stroke="black" points="717.017,-186.675 709.249,-179.47 710.828,-189.947 717.017,-186.675"/>
</g>
<!-- Kristina Johanna Maria -->
<g id="node33" class="node"><title>Kristina Johanna Maria</title>
<g id="a_node33"><a xlink:title="Kristina Johanna Maria!">
<ellipse fill="none" stroke="black" cx="935.544" cy="-450" rx="94.4839" ry="18"/>
<text text-anchor="middle" x="935.544" y="-446.3" font-family="Times,serif" font-size="14.00">Kristina Johanna Maria</text>
</a>
</g>
</g>
<!-- Kristina Johanna Maria&#45;&gt;Karl Andersson -->
<g id="edge38" class="edge"><title>Kristina Johanna Maria&#45;&gt;Karl Andersson</title>
<path fill="none" stroke="black" d="M936.78,-431.697C937.331,-423.983 937.993,-414.712 938.607,-406.112"/>
<polygon fill="black" stroke="black" points="942.101,-406.328 939.322,-396.104 935.118,-405.83 942.101,-406.328"/>
</g>
<!-- Lars Larsson -->
<g id="node34" class="node"><title>Lars Larsson</title>
<g id="a_node34"><a xlink:title="Lars Larsson!">
<ellipse fill="none" stroke="black" cx="378.544" cy="-594" rx="56.59" ry="18"/>
<text text-anchor="middle" x="378.544" y="-590.3" font-family="Times,serif" font-size="14.00">Lars Larsson</text>
</a>
</g>
</g>
<!-- Lars Larsson&#45;&gt;Jacob Larsson -->
<g id="edge39" class="edge"><title>Lars Larsson&#45;&gt;Jacob Larsson</title>
<path fill="none" stroke="black" d="M395.475,-576.765C404.897,-567.73 416.789,-556.326 427.194,-546.349"/>
<polygon fill="black" stroke="black" points="429.656,-548.837 434.452,-539.39 424.811,-543.785 429.656,-548.837"/>
</g>
<!-- Lars Nilsson&#45;&gt;Lars Larsson -->
<g id="edge40" class="edge"><title>Lars Nilsson&#45;&gt;Lars Larsson</title>
<path fill="none" stroke="black" d="M378.544,-647.697C378.544,-639.983 378.544,-630.712 378.544,-622.112"/>
<polygon fill="black" stroke="black" points="382.044,-622.104 378.544,-612.104 375.044,-622.104 382.044,-622.104"/>
</g>
<!-- Lars Olsson -->
<g id="node36" class="node"><title>Lars Olsson</title>
<g id="a_node36"><a xlink:title="Lars Olsson!">
<ellipse fill="none" stroke="black" cx="1092.54" cy="-666" rx="53.0913" ry="18"/>
<text text-anchor="middle" x="1092.54" y="-662.3" font-family="Times,serif" font-size="14.00">Lars Olsson</text>
</a>
</g>
</g>
<!-- Olof Larsson -->
<g id="node51" class="node"><title>Olof Larsson</title>
<g id="a_node51"><a xlink:title="Olof Larsson!">
<ellipse fill="none" stroke="black" cx="1092.54" cy="-594" rx="57.3905" ry="18"/>
<text text-anchor="middle" x="1092.54" y="-590.3" font-family="Times,serif" font-size="14.00">Olof Larsson</text>
</a>
</g>
</g>
<!-- Lars Olsson&#45;&gt;Olof Larsson -->
<g id="edge41" class="edge"><title>Lars Olsson&#45;&gt;Olof Larsson</title>
<path fill="none" stroke="black" d="M1092.54,-647.697C1092.54,-639.983 1092.54,-630.712 1092.54,-622.112"/>
<polygon fill="black" stroke="black" points="1096.04,-622.104 1092.54,-612.104 1089.04,-622.104 1096.04,-622.104"/>
</g>
<!-- Lilliann&#45;&gt;Anna -->
<g id="edge42" class="edge"><title>Lilliann&#45;&gt;Anna</title>
<path fill="none" stroke="black" d="M1161.62,-146.496C1146.27,-135.856 1125.28,-121.315 1108.65,-109.786"/>
<polygon fill="black" stroke="black" points="1110.61,-106.889 1100.4,-104.069 1106.63,-112.642 1110.61,-106.889"/>
</g>
<!-- Lilliann&#45;&gt;Karin -->
<g id="edge43" class="edge"><title>Lilliann&#45;&gt;Karin</title>
<path fill="none" stroke="black" d="M1176.98,-144.055C1174.35,-136.059 1171.15,-126.331 1168.22,-117.4"/>
<polygon fill="black" stroke="black" points="1171.51,-116.197 1165.06,-107.789 1164.86,-118.382 1171.51,-116.197"/>
</g>
<!-- Sara -->
<g id="node54" class="node"><title>Sara</title>
<g id="a_node54"><a xlink:title="Sara!">
<ellipse fill="none" stroke="black" cx="1235.54" cy="-90" rx="27" ry="18"/>
<text text-anchor="middle" x="1235.54" y="-86.3" font-family="Times,serif" font-size="14.00">Sara</text>
</a>
</g>
</g>
<!-- Lilliann&#45;&gt;Sara -->
<g id="edge44" class="edge"><title>Lilliann&#45;&gt;Sara</title>
<path fill="none" stroke="black" d="M1194.84,-144.765C1201.55,-135.893 1210,-124.738 1217.45,-114.892"/>
<polygon fill="black" stroke="black" points="1220.44,-116.751 1223.68,-106.666 1214.86,-112.526 1220.44,-116.751"/>
</g>
<!-- Melissa -->
<g id="node44" class="node"><title>Melissa</title>
<g id="a_node44"><a xlink:title="Melissa!">
<ellipse fill="none" stroke="black" cx="819.544" cy="-18" rx="38.1938" ry="18"/>
<text text-anchor="middle" x="819.544" y="-14.3" font-family="Times,serif" font-size="14.00">Melissa</text>
</a>
</g>
</g>
<!-- Lisa&#45;&gt;Melissa -->
<g id="edge45" class="edge"><title>Lisa&#45;&gt;Melissa</title>
<path fill="none" stroke="black" d="M752.942,-75.1703C764.601,-65.3375 780.494,-51.934 793.83,-40.6863"/>
<polygon fill="black" stroke="black" points="796.355,-43.1353 801.743,-34.0127 791.842,-37.7843 796.355,-43.1353"/>
</g>
<!-- Lovisa Andersson -->
<g id="node39" class="node"><title>Lovisa Andersson</title>
<g id="a_node39"><a xlink:title="Lovisa Andersson!">
<ellipse fill="none" stroke="black" cx="738.544" cy="-378" rx="74.9875" ry="18"/>
<text text-anchor="middle" x="738.544" y="-374.3" font-family="Times,serif" font-size="14.00">Lovisa Andersson</text>
</a>
</g>
</g>
<!-- Lovisa Andersson&#45;&gt;Ester Andersson -->
<g id="edge46" class="edge"><title>Lovisa Andersson&#45;&gt;Ester Andersson</title>
<path fill="none" stroke="black" d="M779.422,-362.834C811.634,-351.672 856.674,-336.064 890.947,-324.187"/>
<polygon fill="black" stroke="black" points="892.457,-327.368 900.759,-320.787 890.165,-320.754 892.457,-327.368"/>
</g>
<!-- Maj&#45;Britt&#45;&gt;Bodil -->
<g id="edge47" class="edge"><title>Maj&#45;Britt&#45;&gt;Bodil</title>
<path fill="none" stroke="black" d="M1150.29,-221.535C1121.2,-211.079 1077.31,-195.015 1039.54,-180 1037.35,-179.13 1035.1,-178.219 1032.84,-177.29"/>
<polygon fill="black" stroke="black" points="1034.16,-174.048 1023.58,-173.432 1031.47,-180.509 1034.16,-174.048"/>
</g>
<!-- Maj&#45;Britt&#45;&gt;Lilliann -->
<g id="edge48" class="edge"><title>Maj&#45;Britt&#45;&gt;Lilliann</title>
<path fill="none" stroke="black" d="M1182.54,-215.697C1182.54,-207.983 1182.54,-198.712 1182.54,-190.112"/>
<polygon fill="black" stroke="black" points="1186.04,-190.104 1182.54,-180.104 1179.04,-190.104 1186.04,-190.104"/>
</g>
<!-- Marcus -->
<g id="node41" class="node"><title>Marcus</title>
<g id="a_node41"><a xlink:title="Marcus!">
<ellipse fill="none" stroke="black" cx="819.544" cy="-90" rx="37.8943" ry="18"/>
<text text-anchor="middle" x="819.544" y="-86.3" font-family="Times,serif" font-size="14.00">Marcus</text>
</a>
</g>
</g>
<!-- Marcus&#45;&gt;Melissa -->
<g id="edge49" class="edge"><title>Marcus&#45;&gt;Melissa</title>
<path fill="none" stroke="black" d="M819.544,-71.6966C819.544,-63.9827 819.544,-54.7125 819.544,-46.1124"/>
<polygon fill="black" stroke="black" points="823.044,-46.1043 819.544,-36.1043 816.044,-46.1044 823.044,-46.1043"/>
</g>
<!-- Maria Jacobsdotter&#45;&gt;Lovisa Andersson -->
<g id="edge50" class="edge"><title>Maria Jacobsdotter&#45;&gt;Lovisa Andersson</title>
<path fill="none" stroke="black" d="M738.544,-431.697C738.544,-423.983 738.544,-414.712 738.544,-406.112"/>
<polygon fill="black" stroke="black" points="742.044,-406.104 738.544,-396.104 735.044,-406.104 742.044,-406.104"/>
</g>
<!-- Marta Jacobsdotter&#45;&gt;Jacob Jacobsson -->
<g id="edge51" class="edge"><title>Marta Jacobsdotter&#45;&gt;Jacob Jacobsson</title>
<path fill="none" stroke="black" d="M694.544,-575.697C694.544,-567.983 694.544,-558.712 694.544,-550.112"/>
<polygon fill="black" stroke="black" points="698.044,-550.104 694.544,-540.104 691.044,-550.104 698.044,-550.104"/>
</g>
<!-- Morgan -->
<g id="node45" class="node"><title>Morgan</title>
<g id="a_node45"><a xlink:title="Morgan!">
<ellipse fill="none" stroke="black" cx="1087.54" cy="-162" rx="38.9931" ry="18"/>
<text text-anchor="middle" x="1087.54" y="-158.3" font-family="Times,serif" font-size="14.00">Morgan</text>
</a>
</g>
</g>
<!-- Morgan&#45;&gt;Anna -->
<g id="edge52" class="edge"><title>Morgan&#45;&gt;Anna</title>
<path fill="none" stroke="black" d="M1086.06,-143.697C1085.4,-135.983 1084.6,-126.712 1083.87,-118.112"/>
<polygon fill="black" stroke="black" points="1087.35,-117.769 1083.01,-108.104 1080.38,-118.367 1087.35,-117.769"/>
</g>
<!-- Morgan&#45;&gt;Karin -->
<g id="edge53" class="edge"><title>Morgan&#45;&gt;Karin</title>
<path fill="none" stroke="black" d="M1103.52,-145.465C1113.26,-136.001 1125.86,-123.752 1136.64,-113.268"/>
<polygon fill="black" stroke="black" points="1139.37,-115.492 1144.1,-106.011 1134.49,-110.473 1139.37,-115.492"/>
</g>
<!-- Morgan&#45;&gt;Sara -->
<g id="edge54" class="edge"><title>Morgan&#45;&gt;Sara</title>
<path fill="none" stroke="black" d="M1114,-148.485C1139.48,-136.437 1177.98,-118.224 1204.81,-105.538"/>
<polygon fill="black" stroke="black" points="1206.57,-108.576 1214.11,-101.137 1203.58,-102.248 1206.57,-108.576"/>
</g>
<!-- Niklas Nilsson&#45;&gt;Carl August Niklasson -->
<g id="edge55" class="edge"><title>Niklas Nilsson&#45;&gt;Carl August Niklasson</title>
<path fill="none" stroke="black" d="M1335.22,-432.765C1325,-423.708 1312.09,-412.27 1300.81,-402.276"/>
<polygon fill="black" stroke="black" points="1303.12,-399.646 1293.32,-395.633 1298.48,-404.885 1303.12,-399.646"/>
</g>
<!-- Nils Andersson -->
<g id="node47" class="node"><title>Nils Andersson</title>
<g id="a_node47"><a xlink:title="Nils Andersson!">
<ellipse fill="none" stroke="black" cx="1398.54" cy="-594" rx="65.7887" ry="18"/>
<text text-anchor="middle" x="1398.54" y="-590.3" font-family="Times,serif" font-size="14.00">Nils Andersson</text>
</a>
</g>
</g>
<!-- Nils Andersson&#45;&gt;Anna Nilsdotter -->
<g id="edge56" class="edge"><title>Nils Andersson&#45;&gt;Anna Nilsdotter</title>
<path fill="none" stroke="black" d="M1397.56,-575.697C1397.11,-567.983 1396.58,-558.712 1396.09,-550.112"/>
<polygon fill="black" stroke="black" points="1399.59,-549.888 1395.52,-540.104 1392.6,-550.288 1399.59,-549.888"/>
</g>
<!-- Nils Jacobsson&#45;&gt;Lovisa Andersson -->
<g id="edge57" class="edge"><title>Nils Jacobsson&#45;&gt;Lovisa Andersson</title>
<path fill="none" stroke="black" d="M497.974,-437.675C546.962,-425.727 624.36,-406.85 678.084,-393.746"/>
<polygon fill="black" stroke="black" points="678.942,-397.14 687.828,-391.37 677.283,-390.339 678.942,-397.14"/>
</g>
<!-- Nils Pärsson -->
<g id="node49" class="node"><title>Nils Pärsson</title>
<g id="a_node49"><a xlink:title="Nils Pärsson!">
<ellipse fill="none" stroke="black" cx="463.544" cy="-738" rx="55.4913" ry="18"/>
<text text-anchor="middle" x="463.544" y="-734.3" font-family="Times,serif" font-size="14.00">Nils Pärsson</text>
</a>
</g>
</g>
<!-- Nils Pärsson&#45;&gt;Lars Nilsson -->
<g id="edge58" class="edge"><title>Nils Pärsson&#45;&gt;Lars Nilsson</title>
<path fill="none" stroke="black" d="M444.256,-721.116C432.925,-711.785 418.419,-699.838 405.92,-689.545"/>
<polygon fill="black" stroke="black" points="407.994,-686.719 398.05,-683.064 403.544,-692.122 407.994,-686.719"/>
</g>
<!-- Olof Henriksson&#45;&gt;Kersti Olsdotter -->
<g id="edge59" class="edge"><title>Olof Henriksson&#45;&gt;Kersti Olsdotter</title>
<path fill="none" stroke="black" d="M103.688,-578.155C128.104,-567.539 161.151,-553.171 187.394,-541.761"/>
<polygon fill="black" stroke="black" points="188.95,-544.901 196.725,-537.704 186.159,-538.481 188.95,-544.901"/>
</g>
<!-- Olof Larsson&#45;&gt;Anders Olsson -->
<g id="edge60" class="edge"><title>Olof Larsson&#45;&gt;Anders Olsson</title>
<path fill="none" stroke="black" d="M1123.06,-578.666C1145.63,-568.061 1176.6,-553.512 1201.21,-541.948"/>
<polygon fill="black" stroke="black" points="1202.74,-545.097 1210.3,-537.677 1199.76,-538.761 1202.74,-545.097"/>
</g>
<!-- Susanna -->
<g id="node56" class="node"><title>Susanna</title>
<g id="a_node56"><a xlink:title="Susanna!">
<ellipse fill="none" stroke="black" cx="915.544" cy="-90" rx="40.0939" ry="18"/>
<text text-anchor="middle" x="915.544" y="-86.3" font-family="Times,serif" font-size="14.00">Susanna</text>
</a>
</g>
</g>
<!-- Susanna&#45;&gt;Melissa -->
<g id="edge61" class="edge"><title>Susanna&#45;&gt;Melissa</title>
<path fill="none" stroke="black" d="M895.185,-74.1548C881.474,-64.1574 863.199,-50.8319 848.047,-39.7834"/>
<polygon fill="black" stroke="black" points="849.687,-36.6475 839.544,-33.5838 845.562,-42.3036 849.687,-36.6475"/>
</g>
</g>
</svg>
